<svg xmlns="http://www.w3.org/2000/svg" viewBox="0 0 1354 1332">
  <path fill="#50468F"
    d="M570.3 223.7c3-.5 6.6-.4 9.7-.2a78.2 78.2 0 0 1 66.8 49.7 95.5 95.5 0 0 1 5.3 22.3c1.8 16 .8 32.8.8 49v83.3l.5 453.9-.5 109c0 18.4-1.3 37.7 1.4 56a132 132 0 0 0 30 65 130 130 0 0 0 89.8 44.4 127 127 0 0 0 90-30.3 131 131 0 0 0 43.2-71.2c4.7-21.2 3.1-44.8 3.1-66.5V502.3c0-17-1-34.5.3-51.3 1.4-20 11-39.8 26.4-52.9a80.8 80.8 0 0 1 60.2-18.5 76.9 76.9 0 0 1 52.5 28.1 79.7 79.7 0 0 1 17.3 42.3c1.2 11.2.7 22.7.7 33.9v522.3c0 17.8.3 35.6-1.6 53.3-8.3 75-46 143.6-105 190.7a283.6 283.6 0 0 1-208.7 62c-30-2-60.5-11-88-22.7-65.3-27.8-116-83-145.5-146.7-3.5-7.3-5.6-15.1-8.6-22.6a297.7 297.7 0 0 1-109.2 36 287 287 0 0 1-212.1-59.5A285.4 285.4 0 0 1 81.6 900.4c-2.7-24.7-1.1-55.2-1.1-80.5V558c0-17.3-1.5-41.1.8-57.8a78.7 78.7 0 0 1 128.3-51 78.2 78.2 0 0 1 25.9 41.7c3.6 15.9 2.8 32.7 2.8 48.9v308.6c0 12.9-.6 26.1.6 39a129 129 0 0 0 45.5 83.6 128.2 128.2 0 0 0 95.5 29.4c50-5 92.3-41 108.7-87.7 9.4-26.9 7.1-56.4 7.1-84.3V341.5c0-16.4-1.4-34.1.8-50.3a77.9 77.9 0 0 1 17.3-39.8 80.7 80.7 0 0 1 56.5-27.7" />
  <path fill="#E8A241"
    d="M566.3 16.8c35.7-2.6 83.2 6.9 116.3 20.9a290.2 290.2 0 0 1 141 124.7c8.7 15.3 15 31 21.4 47.3 4.7-1.8 9.3-4.5 13.7-6.7 9.3-4.5 18.9-9 28.6-12.6a292.2 292.2 0 0 1 194.1-3.1 289.5 289.5 0 0 1 146.5 113 331.9 331.9 0 0 1 19.9 36 267 267 0 0 1 24.8 88.4c3.4 29.5 2.7 59.1 2.7 88.7V746c0 26.4.8 53.3-.9 79.7a77.8 77.8 0 0 1-3.6 20 81.9 81.9 0 0 1-40.1 45.8 81.8 81.8 0 0 1-62.1 2.8 78.8 78.8 0 0 1-47.2-48.6c-5.8-17.8-3.4-65.1-3.4-86.5V485c0-12.6.7-25.6-.6-38.2a136 136 0 0 0-12.5-43.7 130.4 130.4 0 0 0-76.1-67.2 129 129 0 0 0-97.4 7.4 129.6 129.6 0 0 0-65 75.8c-9.5 30.5-6.5 75-6.5 107.5v471.8c0 12.5.7 25.3-.5 37.8a76.3 76.3 0 0 1-41 61.1 69.6 69.6 0 0 1-30.4 8.7c-23 .9-43.6-4.5-60.7-20.6a74.9 74.9 0 0 1-23.2-44.8c-2.8-19.6-1.2-48.4-1.2-69V363c0-21.2.6-42.5 0-63.7-1-32.9-17-68.1-41-90.6a133.3 133.3 0 0 0-70.8-33.6c-6-1-12.5-2.1-18.7-1.8a132.9 132.9 0 0 0-119 84.5 117 117 0 0 0-7.1 30.7c-2 22.7-1.3 45.7-1.3 68.4v421.8c0 22.7.7 45.4.8 68.2 0 13.5.4 27.3-2 40.7a72 72 0 0 1-17.5 36.1 76.9 76.9 0 0 1-55 27 79.7 79.7 0 0 1-58.4-20.3 75.3 75.3 0 0 1-24.2-53.3c-1.7-43.3-.4-87.8-.4-131.3V360.7c0-37.2-2.8-77.6 5-114a292.2 292.2 0 0 1 75.8-144.4c10-10.8 22-20.5 33.9-29.3a286.2 286.2 0 0 1 163.3-56.2" />
  <path fill="#50468F" d="M1188.9 948.2a78.9 78.9 0 1 1 15 157 78.9 78.9 0 0 1-15-157" />
  <path fill="#E8A241" d="M155.5 223.7A78.7 78.7 0 1 1 163 381a78.7 78.7 0 0 1-7.5-157.3" />
</svg>