<svg width="410" height="410" xmlns="http://www.w3.org/2000/svg" version="1.1">
<ellipse ry="20.967" rx="20.967" cy="270.206" cx="328.423" fill="#F9F9FA" style="" id="object-0" />
<path d="M 161.259 94.276 C 161.732 74.663 201.073 71.004 201.296 95.756 C 201.844 156.539 201.796 216.305 202.176 277.694 C 202.286 295.538 245.594 315.238 259.642 277.943 C 260.015 228.731 260.901 181.988 260.901 130.988 C 259.415 111.953 296.647 105.39 300.176 130.68 C 300.176 182.16 299.959 227.81 299.959 280.85 C 300.222 363.31 166.556 351.29 166.672 294.268 C 164.787 311.092 61.157 311.69 62.977 241.904 C 63.941 204.957 62.817 178.469 62.817 140.389 C 62.531 129.791 94.993 112.537 103.459 144.97 C 103.459 178.63 103.755 202.547 103.032 236.588 C 102.533 260.104 151.68 274.398 160.967 240.195 C 160.967 190.035 161.259 145.956 161.259 94.276 Z" style="stroke-width: 1; fill: rgb(249, 249, 250);" id="object-1"></path><path style="fill: rgb(51, 51, 51); text-wrap-mode: nowrap;" />
<ellipse ry="20.967" rx="20.967" cy="-93.347" cx="-83.987" style="stroke-width: 1; fill: rgb(229, 156, 63);" transform="matrix(-1, 0, 0, -1, 0, 0)" id="object-2" />
<path d="M 210.678 39.594 C 211.151 19.981 250.492 16.322 250.715 41.074 C 251.263 101.857 251.215 161.623 251.595 223.012 C 251.705 240.856 295.013 260.556 309.061 223.261 C 309.434 174.049 310.32 127.306 310.32 76.306 C 308.834 57.271 346.066 50.708 349.595 75.998 C 349.595 127.478 349.378 173.128 349.378 226.168 C 349.641 308.628 215.975 296.608 216.091 239.586 C 214.206 256.41 110.576 257.008 112.396 187.222 C 113.36 150.275 112.236 123.787 112.236 85.707 C 111.95 75.109 144.412 57.855 152.878 90.288 C 152.878 123.948 153.174 147.865 152.451 181.906 C 151.952 205.422 201.099 219.716 210.386 185.513 C 210.386 135.353 210.678 91.274 210.678 39.594 Z" style="stroke-width: 1; transform-origin: 230.915px 154.435px; fill: rgb(229, 156, 63);" transform="matrix(-1, 0, 0, -1, 0.000031, 0.000013)" id="object-3" />
</svg>