<svg xmlns="http://www.w3.org/2000/svg" width="1354" height="1332">
  <path fill="#50468F"
    d="M570.294 223.7c3.088-.483 6.637-.423 9.753-.208 29.479 2.042 56.431 22.122 66.719 49.742a95.5 95.5 0 0 1 5.348 22.297c1.737 16.032.823 32.786.817 48.909l-.003 83.339.452 453.89-.473 108.995c.004 18.406-1.263 37.786 1.442 55.996a131.95 131.95 0 0 0 29.886 65.07 129.94 129.94 0 0 0 89.836 44.39c32.03 2.12 65.821-9.15 89.954-30.32 21.786-19.11 36.987-42.64 43.286-71.17 4.691-21.26 3.095-44.84 3.086-66.49l-.035-79.38.014-307.96v-98.548c.001-16.92-.928-34.431.297-51.294 1.454-20.009 11.015-39.801 26.418-52.841 16.859-14.271 38.333-20.586 60.229-18.561a76.9 76.9 0 0 1 52.5 28.182c9.94 12.121 15.56 26.762 17.26 42.258 1.23 11.159.69 22.682.68 33.899l-.05 55.501v182.358l.03 218.535.01 65.901c0 17.78.35 35.63-1.59 53.34-8.24 74.97-46 143.57-104.947 190.64a283.6 283.6 0 0 1-208.681 62.12c-29.949-2-60.503-11.03-88.018-22.75-65.337-27.85-115.92-83.05-145.55-146.69-3.425-7.36-5.563-15.17-8.599-22.69-33.989 18.7-70.5 31.5-109.127 36.01a287 287 0 0 1-212.136-59.45 285.38 285.38 0 0 1-107.54-196.335c-2.673-24.701-1.07-55.155-1.068-80.47l.01-148.561-.038-113.452c-.003-17.3-1.44-41.11.802-57.798 2.082-15.491 7.753-28.987 17.624-41.093 12.523-15.356 32.341-25.957 52.065-27.805 20.737-1.943 42.58 4.359 58.595 17.823 12.725 10.698 22.235 25.542 25.947 41.793 3.618 15.839 2.778 32.683 2.786 48.842l.004 47.844-.004 201.051-.013 59.698c-.028 12.939-.594 26.165.636 39.054 3.014 31.592 21.215 63.556 45.511 83.596a128.2 128.2 0 0 0 95.464 29.363c49.99-4.984 92.342-40.877 108.704-87.692 9.378-26.834 7.157-56.35 7.138-84.318l-.039-61.204.013-328.747-.011-96.77c-.003-16.393-1.411-34.14.811-50.356a77.9 77.9 0 0 1 17.336-39.742c14.239-17.208 34.619-25.765 56.459-27.741" />
  <path fill="#E8A241"
    d="M566.313 16.827c35.693-2.62 83.157 6.836 116.279 20.843A290.2 290.2 0 0 1 823.693 162.38c8.56 15.326 14.822 31.109 21.336 47.329 4.649-1.79 9.223-4.474 13.718-6.683 9.303-4.57 18.81-9.065 28.549-12.636a292.17 292.17 0 0 1 194.134-3.119c58.92 19.623 112.23 61.352 146.43 113.002 7.64 11.53 13.75 23.73 19.9 36.095 13.6 27.378 21.47 58.038 24.88 88.333 3.31 29.469 2.69 59.117 2.69 88.715l-.01 107.221.01 125.336c.02 26.471.81 53.294-.91 79.711-.43 6.696-1.45 13.708-3.64 20.073-6.62 19.285-21.79 36.748-40.12 45.703-19.08 9.323-42.1 9.818-62.06 2.815-21.69-7.611-40.18-26.772-47.22-48.6-5.74-17.818-3.37-65.094-3.37-86.432l-.02-210.209.04-64.012c0-12.634.66-25.651-.68-38.209-1.57-14.594-6-30.518-12.5-43.749a130.42 130.42 0 0 0-76.07-67.115c-31.746-10.75-67.617-7.43-97.417 7.357a129.63 129.63 0 0 0-64.871 75.821c-9.604 30.467-6.59 75.024-6.581 107.428l.029 105.245-.013 304.865.032 61.69c.013 12.526.625 25.376-.578 37.836-.619 6.41-1.91 12.94-4.032 19.03-6.109 17.52-20.211 34.01-36.923 42.1-10.17 5.14-18.977 8.21-30.474 8.66-23.029.89-43.525-4.49-60.693-20.6-12.859-12.07-20.691-27.38-23.181-44.82-2.8-19.61-1.181-48.335-1.18-68.946V841.041l.002-360.445.009-117.624c.014-21.185.553-42.508-.065-63.679-.959-32.89-16.868-68.124-40.985-90.589-19.874-18.513-44.118-29.249-70.742-33.601-6.07-.992-12.534-2.152-18.688-1.846-52.689 2.616-100.218 34.662-118.95 84.538-3.663 9.755-6.295 20.327-7.18 30.72-1.932 22.715-1.287 45.641-1.275 68.414l.019 97.969-.013 323.759c-.036 22.766.717 45.486.729 68.246.006 13.49.44 27.33-1.921 40.658-2.415 13.629-8.263 25.878-17.546 36.17-14.715 16.315-32.945 25.963-55.053 26.975-21.449.982-42.426-5.605-58.336-20.282-15.235-14.054-23.384-32.791-24.205-53.365-1.727-43.282-.429-87.806-.43-131.25l-.007-242.122-.019-142.94c-.015-37.222-2.699-77.605 5.079-114.138 12.089-56.779 36.408-102.008 75.819-144.301 10.05-10.785 21.986-20.534 33.835-29.27a286.22 286.22 0 0 1 163.338-56.21" />
  <path fill="#50468F"
    d="M1188.87 948.221c43.31-4.152 81.8 27.533 86.04 70.819 4.24 43.29-27.37 81.84-70.66 86.17-43.41 4.34-82.1-27.37-86.35-70.79-4.26-43.414 27.54-82.036 70.97-86.199" />
  <path fill="#E8A241"
    d="M155.522 223.664c43.301-2.043 80.109 31.295 82.343 74.581s-30.945 80.236-74.227 82.661c-43.553 2.441-80.79-30.988-83.039-74.546-2.248-43.557 31.35-80.641 74.923-82.696" />
</svg>